<svg xmlns="http://www.w3.org/2000/svg" width="350" height="103" viewBox="0 0 350 103">
  <metadata><?xpacket begin="﻿" id="W5M0MpCehiHzreSzNTczkc9d"?>
<x:xmpmeta xmlns:x="adobe:ns:meta/" x:xmptk="Adobe XMP Core 5.6-c142 79.160924, 2017/07/13-01:06:39        ">
   <rdf:RDF xmlns:rdf="http://www.w3.org/1999/02/22-rdf-syntax-ns#">
      <rdf:Description rdf:about=""/>
   </rdf:RDF>
</x:xmpmeta>
                                                                                                    
                                                                                                    
                                                                                                    
                                                                                                    
                                                                                                    
                                                                                                    
                                                                                                    
                                                                                                    
                                                                                                    
                                                                                                    
                                                                                                    
                                                                                                    
                                                                                                    
                                                                                                    
                                                                                                    
                                                                                                    
                                                                                                    
                                                                                                    
                                                                                                    
                                                                                                    
                           
<?xpacket end="w"?></metadata>
<defs>
    <style>
      .cls-1 {
        fill: #a50164;
      }

      .cls-1, .cls-2 {
        fill-rule: evenodd;
      }

      .cls-2 {
        fill: #fff;
      }
    </style>
  </defs>
  <path id="ICICLE" class="cls-1" d="M0.386,1.455V88.678h19.79V1.455H0.386ZM98.3,70.819a49.235,49.235,0,0,1-16.427,2.847c-17.591,0-27.939-11-27.939-28.47,0-19.412,12.159-28.859,27.809-28.859A42.555,42.555,0,0,1,98.3,19.572L102.31,3.914C98.818,2.1,91.057.031,80.839,0.031c-26.386,0-47.6,16.565-47.6,46.329,0,24.847,15.521,43.612,45.659,43.612,10.606,0,18.755-1.941,22.377-3.753Z"/>
  <path class="cls-2" d="M114.21,1.455V88.678H134V1.455H114.21Zm97.914,69.364A49.233,49.233,0,0,1,195.7,73.666c-17.591,0-27.939-11-27.939-28.47,0-19.412,12.159-28.859,27.81-28.859a42.553,42.553,0,0,1,16.556,3.235l4.01-15.659C212.642,2.1,204.881.031,194.662,0.031c-26.386,0-47.6,16.565-47.6,46.329,0,24.847,15.522,43.612,45.659,43.612,10.607,0,18.755-1.941,22.377-3.753Zm15.909,17.859h54.455V72.113H247.823V1.455h-19.79V88.678ZM346,35.749H313.919V17.631h34.018V1.455H294.129V88.678h55.619V72.5H313.919V51.8H346V35.749Z"/>
  <path id="BETA" class="cls-1" d="M64.575,50.161a0.142,0.142,0,0,0,.161.161h4.688a6.112,6.112,0,0,0,1.546-.185,3.4,3.4,0,0,0,1.216-.571,2.711,2.711,0,0,0,.8-0.973,3.07,3.07,0,0,0,.29-1.375,2.792,2.792,0,0,0-.451-1.6,2.369,2.369,0,0,0-1.128-.925V44.66a2.511,2.511,0,0,0,1.031-.957,2.728,2.728,0,0,0,.354-1.407,3.131,3.131,0,0,0-.218-1.182,2.373,2.373,0,0,0-.668-0.925,3.123,3.123,0,0,0-1.144-.6,5.659,5.659,0,0,0-1.627-.209H64.736a0.142,0.142,0,0,0-.161.161V50.161Zm3.464-6.482a0.085,0.085,0,0,1-.1-0.1v-1.7a0.085,0.085,0,0,1,.1-0.1H68.57a1.477,1.477,0,0,1,.886.209,0.878,0.878,0,0,1,.274.74,0.865,0.865,0,0,1-.282.74,1.481,1.481,0,0,1-.878.209H68.039Zm-0.1,2.187a0.085,0.085,0,0,1,.1-0.1h0.709a1.192,1.192,0,0,1,.87.273,1.066,1.066,0,0,1,.274.788,1.08,1.08,0,0,1-.274.82,1.24,1.24,0,0,1-.87.257H68.039a0.085,0.085,0,0,1-.1-0.1V45.867Zm6.589,4.294a0.142,0.142,0,0,0,.161.161h7.33a0.142,0.142,0,0,0,.161-0.161V47.684a0.142,0.142,0,0,0-.161-0.161H77.978a0.085,0.085,0,0,1-.1-0.1V46.269a0.085,0.085,0,0,1,.1-0.1h3.238a0.142,0.142,0,0,0,.161-0.161V43.6a0.142,0.142,0,0,0-.161-0.161H77.978a0.085,0.085,0,0,1-.1-0.1V42.28a0.085,0.085,0,0,1,.1-0.1h4.043a0.142,0.142,0,0,0,.161-0.161V39.545a0.142,0.142,0,0,0-.161-0.161h-7.33a0.142,0.142,0,0,0-.161.161V50.161Zm14.3,0.161A0.142,0.142,0,0,0,89,50.161V42.473a0.085,0.085,0,0,1,.1-0.1h2.594a0.142,0.142,0,0,0,.161-0.161v-2.67a0.142,0.142,0,0,0-.161-0.161H82.923a0.142,0.142,0,0,0-.161.161v2.67a0.142,0.142,0,0,0,.161.161h2.594a0.085,0.085,0,0,1,.1.1v7.688a0.142,0.142,0,0,0,.161.161h3.061Zm2.014-.161q-0.048.161,0.113,0.161h3.27a0.2,0.2,0,0,0,.21-0.161l0.4-1.431h3.222l0.4,1.431a0.2,0.2,0,0,0,.209.161h3.27c0.107,0,.145-0.054.113-0.161L98.356,39.545a0.2,0.2,0,0,0-.209-0.161H94.86a0.2,0.2,0,0,0-.209.161Zm4.768-4.182,0.838-2.911H96.5l0.805,2.911H95.617Z"/>
  <path id="by_WinterCore" data-name="by WinterCore" class="cls-1" d="M294.056,100.691a1.6,1.6,0,0,0,.516-0.8,2.794,2.794,0,0,0,.124-0.584,7.749,7.749,0,0,0,0-1.407,2.8,2.8,0,0,0-.124-0.584,1.6,1.6,0,0,0-.516-0.8,1.459,1.459,0,0,0-.93-0.276,1.513,1.513,0,0,0-.7.147,1.062,1.062,0,0,0-.433.386h-0.009V94.7a0.082,0.082,0,0,0-.093-0.092h-1.657a0.082,0.082,0,0,0-.093.092v6.07a0.082,0.082,0,0,0,.093.092h1.657a0.082,0.082,0,0,0,.093-0.092v-0.331h0.009a1.063,1.063,0,0,0,.433.386,1.513,1.513,0,0,0,.7.147A1.459,1.459,0,0,0,294.056,100.691Zm-1.87-1.251a0.326,0.326,0,0,1-.147-0.2A1.244,1.244,0,0,1,292,99.017c-0.009-.086-0.013-0.224-0.013-0.414s0-.328.013-0.414a1.252,1.252,0,0,1,.042-0.221,0.327,0.327,0,0,1,.147-0.2,0.5,0.5,0,0,1,.24-0.055,0.49,0.49,0,0,1,.239.055,0.328,0.328,0,0,1,.148.2,1.259,1.259,0,0,1,.041.221c0.009,0.086.014,0.224,0.014,0.414s0,0.328-.014.414a1.251,1.251,0,0,1-.041.221,0.327,0.327,0,0,1-.148.2,0.49,0.49,0,0,1-.239.055A0.5,0.5,0,0,1,292.186,99.44Zm3.933,3.072a3.637,3.637,0,0,0,.617-0.046,1.441,1.441,0,0,0,.47-0.161,1.153,1.153,0,0,0,.35-0.308,2.4,2.4,0,0,0,.276-0.487l2.109-5.068c0.025-.061,0-0.092-0.064-0.092h-1.713a0.115,0.115,0,0,0-.12.092l-0.589,1.849h-0.019l-0.645-1.849a0.115,0.115,0,0,0-.119-0.092h-1.741c-0.068,0-.089.031-0.065,0.092l1.732,4.074-0.083.23a0.4,0.4,0,0,1-.184.235,0.7,0.7,0,0,1-.313.06h-0.277a0.081,0.081,0,0,0-.092.092v1.287a0.082,0.082,0,0,0,.092.092h0.378Zm12.674-1.655a0.122,0.122,0,0,0,.129-0.092l1.8-6.07c0.018-.061,0-0.092-0.065-0.092h-1.879a0.107,0.107,0,0,0-.119.092l-0.673,3.311h-0.018l-0.9-3.311a0.121,0.121,0,0,0-.129-0.092h-1.114a0.121,0.121,0,0,0-.129.092l-0.866,3.311h-0.018l-0.7-3.311a0.109,0.109,0,0,0-.12-0.092h-1.9c-0.061,0-.082.031-0.064,0.092l1.8,6.07a0.121,0.121,0,0,0,.129.092h1.418a0.121,0.121,0,0,0,.129-0.092l0.866-3.026h0.019l0.865,3.026a0.122,0.122,0,0,0,.129.092h1.419Zm4.117-4.93A0.081,0.081,0,0,0,313,95.835V94.7a0.082,0.082,0,0,0-.092-0.092h-1.658a0.081,0.081,0,0,0-.092.092v1.14a0.081,0.081,0,0,0,.092.092h1.658Zm0,4.93a0.082,0.082,0,0,0,.092-0.092V96.442a0.081,0.081,0,0,0-.092-0.092h-1.658a0.081,0.081,0,0,0-.092.092v4.323a0.081,0.081,0,0,0,.092.092h1.658Zm5.213,0a0.082,0.082,0,0,0,.092-0.092V97.923a3.015,3.015,0,0,0-.074-0.69,1.348,1.348,0,0,0-.248-0.533,1.151,1.151,0,0,0-.452-0.34,1.69,1.69,0,0,0-.672-0.12,1.516,1.516,0,0,0-.7.147,1.13,1.13,0,0,0-.442.386h-0.009V96.442a0.082,0.082,0,0,0-.093-0.092h-1.657a0.082,0.082,0,0,0-.093.092v4.323a0.082,0.082,0,0,0,.093.092h1.657a0.082,0.082,0,0,0,.093-0.092V98.208a0.385,0.385,0,1,1,.755,0v2.557a0.081,0.081,0,0,0,.092.092h1.658Zm3.426,0.055a0.082,0.082,0,0,0,.092-0.092V99.5a0.081,0.081,0,0,0-.092-0.092h-0.184a0.422,0.422,0,0,1-.336-0.106,0.651,0.651,0,0,1-.088-0.4v-1.2A0.049,0.049,0,0,1,321,97.638h0.553a0.081,0.081,0,0,0,.092-0.092v-1.1a0.081,0.081,0,0,0-.092-0.092H321a0.049,0.049,0,0,1-.055-0.055v-1.14a0.081,0.081,0,0,0-.092-0.092H319.21a0.081,0.081,0,0,0-.092.092V96.3a0.049,0.049,0,0,1-.056.055h-0.239a0.081,0.081,0,0,0-.092.092v1.1a0.081,0.081,0,0,0,.092.092h0.239a0.049,0.049,0,0,1,.056.055v1.278a3.476,3.476,0,0,0,.1.906,1.336,1.336,0,0,0,.327.6,1.3,1.3,0,0,0,.58.331,3.193,3.193,0,0,0,.861.1h0.562Zm3.979-.129a2.773,2.773,0,0,0,.912-0.533,0.085,0.085,0,0,0,.018-0.138l-0.718-.791a0.09,0.09,0,0,0-.129-0.018,1.713,1.713,0,0,1-.986.331,1.218,1.218,0,0,1-.52-0.1,0.5,0.5,0,0,1-.281-0.285,0.307,0.307,0,0,1-.018-0.092,0.049,0.049,0,0,1,.055-0.055h2.625a0.081,0.081,0,0,0,.092-0.092,8.515,8.515,0,0,0-.037-0.924,2.574,2.574,0,0,0-.1-0.51,1.82,1.82,0,0,0-.742-0.989,2.539,2.539,0,0,0-1.4-.345,2.478,2.478,0,0,0-1.359.35,1.815,1.815,0,0,0-.76,1.012,2.354,2.354,0,0,0-.1.414,4.7,4.7,0,0,0,0,1.177,2.35,2.35,0,0,0,.1.414,1.829,1.829,0,0,0,.779,1,2.686,2.686,0,0,0,1.459.359A3.285,3.285,0,0,0,325.528,100.783Zm-1.667-2.713a0.049,0.049,0,0,1-.055-0.055,0.733,0.733,0,0,1,.027-0.221,0.538,0.538,0,0,1,.977,0,0.733,0.733,0,0,1,.027.221,0.049,0.049,0,0,1-.055.055h-0.921Zm5.066,2.787a0.082,0.082,0,0,0,.092-0.092V98.548a0.512,0.512,0,0,1,.34-0.589,0.592,0.592,0,0,1,.309.009,1.712,1.712,0,0,1,.345.147,0.093,0.093,0,0,0,.129-0.009l0.535-1.7c0.018-.067,0-0.107-0.056-0.12a1.554,1.554,0,0,0-.423-0.046,1.668,1.668,0,0,0-.7.143,0.946,0.946,0,0,0-.47.464h-0.009v-0.4a0.081,0.081,0,0,0-.092-0.092h-1.658a0.081,0.081,0,0,0-.092.092v4.323a0.081,0.081,0,0,0,.092.092h1.658Zm3.15-.276a3.027,3.027,0,0,0,2.951,0,2.1,2.1,0,0,0,.852-1.089,0.087,0.087,0,0,0-.046-0.129l-1.482-.635a0.091,0.091,0,0,0-.139.064,0.869,0.869,0,0,1-.239.35,0.589,0.589,0,0,1-.378.11,0.507,0.507,0,0,1-.534-0.377,1.053,1.053,0,0,1-.032-0.124,1.684,1.684,0,0,1-.023-0.193c-0.006-.083-0.011-0.19-0.014-0.322s0-.3,0-0.51,0-.379,0-0.51,0.008-.239.014-0.322a1.69,1.69,0,0,1,.023-0.193,1.056,1.056,0,0,1,.032-0.124A0.507,0.507,0,0,1,333.6,96.2a0.589,0.589,0,0,1,.378.11,0.87,0.87,0,0,1,.239.349,0.09,0.09,0,0,0,.139.064l1.482-.635a0.087,0.087,0,0,0,.046-0.129,2.107,2.107,0,0,0-.852-1.09,3.027,3.027,0,0,0-2.951,0,2.078,2.078,0,0,0-.848,1.159c-0.037.11-.067,0.219-0.092,0.326a3.2,3.2,0,0,0-.06.354c-0.015.129-.026,0.275-0.032,0.437s-0.009.354-.009,0.575,0,0.412.009,0.575,0.017,0.308.032,0.437a3.19,3.19,0,0,0,.06.354c0.025,0.107.055,0.216,0.092,0.326A2.08,2.08,0,0,0,332.077,100.581Zm7.824,0.055a1.731,1.731,0,0,0,.806-1.012,2.39,2.39,0,0,0,.11-0.506,4.75,4.75,0,0,0,0-1.03,2.392,2.392,0,0,0-.11-0.506,1.73,1.73,0,0,0-.806-1.012,2.953,2.953,0,0,0-2.717,0,1.726,1.726,0,0,0-.806,1.012,2.394,2.394,0,0,0-.111.506,4.925,4.925,0,0,0,0,1.03,2.393,2.393,0,0,0,.111.506,1.727,1.727,0,0,0,.806,1.012A2.953,2.953,0,0,0,339.9,100.636Zm-1.6-1.2a0.327,0.327,0,0,1-.148-0.2,1.251,1.251,0,0,1-.041-0.221c-0.009-.086-0.014-0.224-0.014-0.414s0-.328.014-0.414a1.259,1.259,0,0,1,.041-0.221,0.328,0.328,0,0,1,.148-0.2,0.49,0.49,0,0,1,.239-0.055,0.5,0.5,0,0,1,.24.055,0.33,0.33,0,0,1,.147.2,1.351,1.351,0,0,1,.042.221c0.009,0.086.013,0.224,0.013,0.414s0,0.328-.013.414a1.341,1.341,0,0,1-.042.221,0.33,0.33,0,0,1-.147.2,0.5,0.5,0,0,1-.24.055A0.49,0.49,0,0,1,338.3,99.44Zm4.89,1.417a0.082,0.082,0,0,0,.093-0.092V98.548a0.512,0.512,0,0,1,.34-0.589,0.592,0.592,0,0,1,.309.009,1.712,1.712,0,0,1,.345.147,0.093,0.093,0,0,0,.129-0.009l0.534-1.7a0.08,0.08,0,0,0-.055-0.12,1.554,1.554,0,0,0-.423-0.046,1.668,1.668,0,0,0-.7.143,0.946,0.946,0,0,0-.47.464h-0.009v-0.4a0.082,0.082,0,0,0-.093-0.092h-1.657a0.082,0.082,0,0,0-.093.092v4.323a0.082,0.082,0,0,0,.093.092h1.657Zm5.536-.074a2.773,2.773,0,0,0,.912-0.533,0.085,0.085,0,0,0,.018-0.138l-0.718-.791a0.09,0.09,0,0,0-.129-0.018,1.713,1.713,0,0,1-.986.331,1.218,1.218,0,0,1-.52-0.1,0.5,0.5,0,0,1-.281-0.285,0.307,0.307,0,0,1-.018-0.092,0.049,0.049,0,0,1,.055-0.055h2.625a0.081,0.081,0,0,0,.092-0.092,8.515,8.515,0,0,0-.037-0.924,2.574,2.574,0,0,0-.1-0.51,1.82,1.82,0,0,0-.742-0.989,2.539,2.539,0,0,0-1.4-.345,2.478,2.478,0,0,0-1.359.35,1.815,1.815,0,0,0-.76,1.012,2.354,2.354,0,0,0-.1.414,4.7,4.7,0,0,0,0,1.177,2.35,2.35,0,0,0,.1.414,1.829,1.829,0,0,0,.779,1,2.688,2.688,0,0,0,1.46.359A3.284,3.284,0,0,0,348.729,100.783Zm-1.667-2.713a0.049,0.049,0,0,1-.055-0.055,0.733,0.733,0,0,1,.027-0.221,0.538,0.538,0,0,1,.977,0,0.733,0.733,0,0,1,.027.221,0.049,0.049,0,0,1-.055.055h-0.921Z"/>
</svg>
